<svg width="320" height="320" xmlns="http://www.w3.org/2000/svg">
 <!-- Created with Method Draw - http://github.com/duopixel/Method-Draw/ -->
 <g>
  <title>background</title>
  <rect fill="none" id="canvas_background" height="322" width="322" y="-1" x="-1"/>
  <g display="none" overflow="visible" y="0" x="0" height="100%" width="100%" id="canvasGrid">
   <rect fill="url(#gridpattern)" stroke-width="0" y="0" x="0" height="100%" width="100%"/>
  </g>
 </g>
 <g>
  <title>Layer 1</title>
  <path id="svg_1" d="m163.970205,45.807892c-57.438281,0 -103.999998,46.561718 -103.999998,104.000001c0,57.438283 46.561716,104.000001 103.999998,104.000001c57.438281,0 103.999998,-46.561718 103.999998,-104.000001c0,-57.438283 -46.561716,-104.000001 -103.999998,-104.000001zm81.831841,113.946334c0.007156,0.014311 0.028623,0.014311 0.035778,0.028623c-0.157424,1.338104 -0.386404,2.647585 -0.608229,3.964222c-0.107335,-0.085868 -0.243292,-0.178891 -0.336315,-0.257603c-0.73703,-0.644007 -1.817531,-0.915921 -2.275492,-0.822898c-1.123435,0.22898 1.63864,2.182469 1.910555,2.447227c0.064401,0.064401 0.221825,0.214669 0.443649,0.415027c-7.363148,38.010734 -40.85152,66.819321 -80.994631,66.819321c-29.502683,0 -55.355992,-15.599285 -69.953487,-38.933811c0.880143,-0.11449 1.717352,-0.11449 2.003578,-0.543828c0.364937,-0.550984 0.729875,-1.724508 1.273703,-2.368515c0.550984,-0.636852 1.18068,-1.63864 0.908766,-2.089445c-0.27907,-0.457961 0.722719,-2.461538 0.629696,-2.998211c-0.093023,-0.543828 -0.908766,-1.831843 0.457961,-2.912344s2.81932,-2.733453 2.912343,-3.177102c0.085868,-0.450805 1.187835,-2.368515 1.087657,-3.277281c-0.085868,-0.908766 -1.087657,-2.003578 -1.717352,-2.275492c-0.644007,-0.264759 -2.003578,-0.357782 -2.547406,-1.080501c-0.550984,-0.73703 -2.089445,-1.452594 -2.633274,-1.273703c-0.543828,0.178891 -1.45975,0.357782 -2.182469,-0.107335c-0.729875,-0.443649 -1.910555,-0.994633 -2.36136,-1.352415c-0.465116,-0.357782 -1.63864,-0.629696 -2.182469,-0.629696c-0.550984,0 -0.465116,-0.372093 -1.273703,0.722719c-0.815742,1.094812 0,1.45975 -1.45975,1.266547c-1.45975,-0.16458 0.178891,-0.257603 1.008945,-1.352415c0.808587,-1.087657 -0.093023,-1.731664 -1.008945,-1.452594c-0.90161,0.271914 -0.271914,0.822898 -1.724508,1.094812c-1.452594,0.257603 -1.452594,-0.644007 -0.543828,-0.822898s2.54025,-0.994633 2.54025,-1.359571c0,-0.364937 -0.178891,-1.366726 -0.908766,-1.366726s-0.550984,-0.90161 -1.63864,-2.08229c-0.658318,-0.722719 -1.402504,-1.173524 -2.139535,-1.45975c-0.644007,-4.143113 -1.073345,-8.350626 -1.073345,-12.67263c0,-20.350626 7.434705,-38.969589 19.685152,-53.366727c0.171735,-0.143113 0.34347,-0.243292 0.493739,-0.257603c0.601073,-0.064401 2.218247,-0.178891 3.649374,-0.422182c1.445438,-0.243292 2.991055,-1.152057 3.499105,-1.094812c0.493739,0.057245 1.724508,0.057245 1.330948,-0.300537c-0.400716,-0.407871 -0.958855,-1.252236 -1.788909,-1.252236s-0.057245,-1.330948 0.16458,-1.330948c0.214669,0 1.330948,0.178891 1.273703,0.78712c-0.050089,0.608229 0.336315,1.388193 1.438283,1.152057c1.116279,-0.243292 0.944544,-1.159213 0.729875,-1.395349c-0.22898,-0.243292 -0.39356,-0.851521 -0.608229,-1.273703c-0.221825,-0.429338 -0.16458,-0.973166 1.001789,-1.094812c1.159213,-0.11449 2.762075,0.479428 2.70483,-0.486583s0,-2.003578 0.329159,-2.547406c0.336315,-0.536673 1.059034,-0.908766 0.665474,-1.087657c-0.379249,-0.178891 -0.880143,0.243292 -1.273703,-0.665474c-0.386404,-0.908766 0.336315,-1.57424 0.772809,-1.939177c0.143113,-0.107335 0.479428,-0.429338 0.887299,-0.801431c13.459749,-9.531306 29.846153,-15.191413 47.563505,-15.191413c22.991055,0 43.806797,9.466905 58.776385,24.686941c-0.057245,0.157424 -0.071556,0.372093 -0.221825,0.400716c-0.550984,0.093023 -1.187835,0.450805 -1.280859,-0.364937c-0.093023,-0.815742 -0.093023,-2.368515 -0.729875,-1.452594c-0.636852,0.908766 -0.908766,0.908766 -0.908766,1.366726c0,0.450805 0.543828,0.908766 0.364937,1.724508c-0.186047,0.815742 -0.186047,1.366726 0.100179,1.366726c0.257603,0 0.90161,-0.822898 1.710197,-1.008945c0.830054,-0.178891 2.282648,-0.629696 2.375671,0.186047c0.093023,0.822898 0.994633,1.087657 0.093023,1.452594c-0.915921,0.364937 -1.910555,0.186047 -2.096601,-0.364937c-0.178891,-0.550984 -0.815742,-0.550984 -1.452594,-0.093023c-0.629696,0.450805 -1.996422,2.089445 -1.996422,2.089445s-2.189624,0.994633 -2.454383,0.815742c-0.286225,-0.178891 0.722719,-1.18068 1.452594,-1.631485c0.729875,-0.457961 1.273703,-1.45975 1.001789,-1.731664c-0.271914,-0.271914 -0.629696,-1.996422 -0.450805,-2.454383c0.178891,-0.450805 0.994633,-1.087657 0.093023,-1.545617c-0.908766,-0.450805 -1.552773,-1.001789 -2.275492,-1.273703s-1.545617,1.087657 -2.182469,1.45975c-0.636852,0.364937 -0.543828,0.815742 -1.366726,0.908766c-0.815742,0.093023 -1.352415,1.18068 0,1.817531c1.366726,0.636852 1.824687,1.087657 1.45975,1.45975c-0.364937,0.364937 -1.910555,-0.178891 -1.910555,-0.178891s-1.18068,-0.543828 -1.91771,-0.543828c-0.722719,0 -1.63864,-0.450805 -2.36136,-0.543828c-0.729875,-0.093023 -2.189624,-0.093023 -2.54025,0.271914c-0.364937,0.364937 -1.280859,1.452594 -2.003578,1.087657c-0.722719,-0.364937 -0.722719,-0.729875 -1.724508,-0.364937c-1.001789,0.364937 -1.996422,-0.271914 -2.54025,0.271914c-0.550984,0.543828 -0.093023,0.543828 -1.824687,0c-1.724508,-0.543828 -1.352415,0.364937 -2.998211,0.636852s-2.633274,-0.271914 -3.091234,0.271914c-0.457961,0.550984 -1.094812,1.552773 -1.359571,0.908766c-0.271914,-0.629696 0.90161,-1.724508 0.443649,-2.089445c-0.443649,-0.364937 -2.36136,-0.178891 -2.626118,0.093023c-0.27907,0.271914 -0.100179,1.273703 0.078712,1.63864c0.186047,0.357782 0.457961,1.817531 -0.078712,1.545617c-0.550984,-0.271914 -0.457961,-1.187835 -1.008945,-1.087657c-0.543828,0.093023 -1.18068,0.364937 -1.452594,0.550984c-0.271914,0.178891 -1.366726,0.178891 -1.63864,0.543828c-0.264758,0.364937 0.100179,1.366726 -0.364937,1.452594c-0.450805,0.093023 -0.815742,0.457961 -1.817531,-0.178891c-1.001789,-0.636852 -1.001789,-0.271914 -1.273703,-0.085868c-0.271914,0.178891 -1.545617,0.908766 -1.63864,0.085868c-0.093023,-0.815742 0.178891,-1.087657 -0.636852,-1.63864c-0.822898,-0.543828 -0.186047,-0.543828 0.908766,-0.178891c1.087657,0.357782 2.454383,0.536673 4.450805,-0.093023c2.003578,-0.636852 2.826476,-0.908766 2.003578,-1.273703c-0.822898,-0.357782 -1.63864,-0.722719 -2.905188,-0.908766c-1.280859,-0.178891 -3.005367,-0.178891 -5.008944,-0.908766c-1.996422,-0.729875 -2.454383,-1.001789 -3.270125,-1.18068c-0.822898,-0.186047 -5.817531,-1.001789 -8.100179,-0.636852c-2.268336,0.364937 -8.536672,2.003578 -8.908765,2.275492s-0.915921,1.359571 -2.089445,2.275492c-1.18068,0.908766 -3.363148,2.998211 -5.094812,3.363149c-1.724508,0.364937 -3.728086,1.817531 -3.728086,2.182469c0,0.364937 0.722719,1.731664 0.543828,2.003578c-0.178891,0.271914 0.357782,1.63864 1.366726,2.003578c0.994633,0.357782 2.726297,0.271914 2.812165,-0.27907c0.100179,-0.543828 1.45975,-1.724508 1.552773,-0.908766c0.093023,0.822898 1.001789,2.089445 0.815742,2.633274c-0.178891,0.550984 0,1.094812 0.644007,1.001789c0.629696,-0.085868 4,-0.815742 4,-0.815742s1.094812,-0.457961 0.908766,-1.187835c-0.186047,-0.722719 1.187835,-1.724508 1.452594,-1.996422c0.271914,-0.271914 1.273703,-1.366726 0.100179,-1.724508c-1.194991,-0.364937 -2.096601,-0.457961 -0.822898,-1.545617s2.089445,0 3.728086,-1.63864c1.63864,-1.63864 -0.364937,-2.089445 1.366726,-2.182469c1.724508,-0.093023 3.549195,-0.178891 3.177102,0.364937c-0.357782,0.543828 -2.447227,1.731664 -3.635063,2.275492c-1.187835,0.550984 -1.001789,1.545617 -0.543828,2.089445c0.450805,0.543828 0.644007,1.817531 1.45975,1.63864c0.808587,-0.178891 1.817531,-0.815742 2.719141,-0.722719c0.915921,0.085868 2.740608,-0.093023 3.005367,-0.093023c0.27907,0 1.545617,1.273703 0.815742,1.452594c-0.722719,0.178891 -1.63864,0.093023 -3.184258,0.178891c-1.538462,0.093023 -3.26297,0.093023 -3.26297,0.364937c0,0.27907 2.089445,0.908766 1.359571,1.366726c-0.729875,0.450805 -1.452594,-0.093023 -2.368515,-0.186047c-0.908766,-0.085868 -1.452594,1.187835 -1.724508,1.910555c-0.27907,0.729875 0.450805,2.003578 -0.908766,1.545617c-1.366726,-0.450805 -2.368515,-0.450805 -2.726297,-0.271914c-0.364937,0.178891 -1.452594,0.543828 -2.368515,0.815742c-0.90161,0.271914 -0.543828,-0.450805 -1.731664,-0.450805c-1.173524,0 -1.173524,0 -1.173524,0l-0.73703,0.093023c0,0 -0.722719,-0.450805 -0.815742,-1.18068c-0.093023,-0.729875 0.357782,-1.545617 -0.093023,-1.724508c-0.457961,-0.186047 -2.089445,0.085868 -2.36136,0.629696c-0.271914,0.543828 -0.550984,1.545617 -0.186047,2.003578c0.372093,0.450805 1.45975,1.359571 0.457961,1.087657c-1.001789,-0.271914 -2.268336,-0.364937 -2.998211,0.186047c-0.722719,0.543828 -1.996422,1.724508 -1.996422,1.724508s-2.275492,0.178891 -2.275492,0.729875c0,0.550984 0,1.273703 -0.815742,1.366726c-0.822898,0.093023 -1.91771,0.357782 -3.005367,0.543828c-1.094812,0.178891 -0.994633,0.629696 -2.268336,0.729875s-1.45975,0.636852 -0.271914,0.815742c1.18068,0.178891 2.991055,0.908766 3.084079,1.724508c0.100179,0.815742 -0.093023,1.731664 -0.543828,2.547406c-0.307692,0.565295 -2.182469,0.186047 -3.277281,0.186047c-1.087657,0 -3.26297,-0.364937 -4.178891,0c-0.908766,0.364937 -0.729875,2.182469 -0.457961,2.998211c0.27907,0.815742 -0.085868,1.273703 -0.450805,1.545617c-0.364937,0.271914 -0.465116,1.087657 0,1.45975c0.450805,0.364937 0.815742,1.18068 1.187835,1.273703c0.364937,0.093023 1.538462,-0.271914 1.996422,0.178891c0.457961,0.457961 0.908766,1.545617 1.18068,1.273703c0.27907,-0.271914 0.636852,-1.452594 1.094812,-1.187835c0.457961,0.27907 1.545617,-0.085868 2.368515,-0.178891s1.266547,-1.001789 2.089445,-1.45975c0.815742,-0.450805 0.357782,-0.450805 0.093023,-1.001789c-0.271914,-0.543828 0.815742,-1.18068 1.45975,-1.817531c0.629696,-0.636852 1.810376,-0.093023 2.089445,-0.822898c0.271914,-0.729875 0.364937,-1.996422 1.080501,-1.910555c0.73703,0.093023 1.738819,0.543828 2.368515,0.543828c0.636852,0 1.996422,-1.001789 2.375671,-1.18068c0.357782,-0.178891 1.724508,-0.093023 1.910555,0.729875c0.178891,0.815742 1.724508,1.817531 2.089445,1.996422c0.364937,0.178891 2.726297,0.908766 3.09839,1.18068c0.357782,0.271914 0.90161,1.094812 1.087657,1.817531c0.178891,0.729875 0.815742,0.729875 0.915921,0.093023c0.085868,-0.636852 -0.465116,-1.817531 0.178891,-1.731664c0.629696,0.093023 1.366726,-0.186047 1.366726,-0.186047s-1.738819,-1.18068 -2.368515,-1.452594c-0.629696,-0.271914 -1.824687,-0.815742 -2.368515,-1.724508c-0.543828,-0.908766 -1.910555,-1.094812 -1.817531,-1.996422c0.093023,-0.908766 1.366726,-0.364937 2.089445,0.364937c0.729875,0.729875 2.547406,1.724508 3.184258,2.36136c0.629696,0.636852 1.63864,0.908766 1.910555,1.731664c0.27907,0.815742 1.087657,1.724508 1.359571,2.089445c0.271914,0.364937 1.18068,2.368515 1.45975,2.81932c0.271914,0.450805 1.18068,-0.085868 1.63864,-0.450805c0.450805,-0.364937 1.280859,-0.543828 1.366726,-1.273703c0.093023,-0.729875 -1.094812,-1.273703 -1.452594,-1.545617c-0.364937,-0.271914 0.908766,-0.543828 1.366726,-0.908766c0.450805,-0.357782 1.266547,-1.001789 1.631485,-0.450805c0.364937,0.550984 0.186047,2.726297 0.364937,3.091234c0.178891,0.364937 1.996422,0.908766 2.368515,1.366726c0.357782,0.450805 1.910555,0.636852 2.175313,0.364937c0.27907,-0.271914 1.731664,0.186047 2.103757,0.271914c0.350626,0.093023 1.445438,-0.178891 2.175313,-0.357782c0.73703,-0.178891 1.45975,-0.729875 1.366726,0.450805c-0.093023,1.18068 -0.364937,2.998211 -1.280859,3.906977c-0.908766,0.908766 -0.543828,1.366726 -1.445438,1.366726c-0.429338,0 -0.808587,0 -1.116279,0.150268c-0.293381,-0.465116 -0.701252,-0.837209 -1.252236,-0.694097c-1.087657,0.271914 -2.461538,0.271914 -3.363148,1.359571c-0.915921,1.094812 -1.273703,1.18068 -1.45975,0.815742c-0.178891,-0.364937 2.640429,-1.910555 2.268336,-2.368515c-0.357782,-0.450805 -2.54025,-0.271914 -3.728086,-0.271914c-1.187835,0 -2.182469,-0.729875 -3.09839,-0.908766c-0.90161,-0.178891 -2.089445,0.908766 -2.991055,1.817531c-0.915921,0.908766 -1.545617,0.271914 -2.368515,0.271914c-0.822898,0 -2.368515,-1.18068 -2.368515,-1.18068s-1.545617,-0.636852 -2.182469,-0.636852c-0.629696,0 -1.910555,-1.18068 -2.275492,-1.18068c-0.357782,0 -1.359571,-0.822898 -0.629696,-1.187835c0.722719,-0.357782 1.445438,0.364937 0.722719,-1.63864c-0.722719,-1.996422 -2.36136,-1.545617 -2.998211,-1.273703c-0.629696,0.27907 -5.18068,0.178891 -5.545617,0.178891c-0.364937,0 -2.998211,0.908766 -3.813953,1.273703c-0.830054,0.364937 -2.275492,0.822898 -2.640429,1.001789c-0.364937,0.178891 -2.275492,-0.364937 -3.09839,0.093023c-1.080501,0.601073 -2.08229,1.545617 -2.36136,1.545617c-0.271914,0 -1.094812,0.636852 -1.63864,2.003578c-0.550984,1.359571 0.093023,2.54025 -0.915921,2.998211c-0.994633,0.450805 -2.81932,1.45975 -3.542039,2.182469c-0.729875,0.722719 -1.63864,3.277281 -2.54025,4.457961c-0.908766,1.18068 0,2.268336 0.178891,2.998211c0.178891,0.722719 0.815742,2.089445 -0.178891,3.370304c-1.001789,1.273703 -0.908766,1.903399 -1.366726,1.996422c-0.450805,0.093023 0.450805,0.450805 0.629696,1.359571c0.178891,0.915921 -0.815742,1.824687 0.915921,2.640429c1.724508,0.808587 2.54025,1.552773 2.991055,2.626118c0.457961,1.094812 2.733453,2.912344 2.733453,2.912344s1.63864,1.466905 2.461538,2.096601c0.815742,0.636852 1.087657,0.271914 1.266547,-0.357782c0.178891,-0.644007 1.273703,-0.744186 2.54025,-0.744186c1.273703,0 2.182469,0.286225 3.456172,0.100179c1.273703,-0.178891 2.547406,-1.008945 3.005367,-1.187835c0.450805,-0.178891 1.996422,-1.173524 3.169946,-0.450805c1.187835,0.73703 1.008945,1.724508 1.645796,2.375671c0.629696,0.629696 1.717352,0.264759 2.54025,-0.364937c0.815742,-0.644007 0.457961,-0.372093 1.452594,0.178891c1.001789,0.536673 1.45975,1.080501 0.550984,1.910555c-0.915921,0.808587 -0.364937,2.096601 -0.915921,3.363149c-0.543828,1.273703 -0.450805,1.452594 0.550984,1.989267c1.001789,0.543828 2.81932,3.921288 3.363148,4.565295c0.550984,0.629696 -0.178891,2.447227 0.457961,3.542039c0.636852,1.080501 1.273703,1.817531 0.550984,2.368515c-0.73703,0.536673 -2.003578,1.545617 -2.089445,3.363149s0.364937,3.084079 0.729875,3.728086s1.266547,2.368515 1.724508,2.998211c0.457961,0.636852 1.001789,2.182469 1.087657,3.184258c0.093023,1.001789 -0.171735,2.189624 0.27907,2.726297c0.457961,0.543828 0.729875,1.366726 1.545617,2.089445c0.822898,0.73703 1.087657,2.275492 1.087657,2.275492s0.27907,0.636852 0.364937,1.63864c0.085868,1.001789 0.178891,1.631485 1.087657,2.089445c0.90161,0.450805 1.538462,0.543828 2.003578,0.093023c0.450805,-0.450805 2.726297,-0.550984 3.906977,-0.450805c1.18068,0.093023 2.54025,-0.536673 3.728086,-1.359571s2.912343,-2.998211 3.549195,-3.635063c0.636852,-0.644007 2.089445,-1.824687 1.91771,-2.547406c-0.178891,-0.722719 -0.550984,-1.452594 0.171735,-1.817531c0.729875,-0.372093 2.461538,-1.087657 2.547406,-1.63864c0.093023,-0.550984 -0.644007,-2.826476 -0.822898,-3.270125c-0.171735,-0.457961 0.457961,-1.288014 1.18068,-2.189624c0.73703,-0.915921 3.012522,-1.545617 3.370304,-1.910555c0.364937,-0.379249 1.366726,-1.910555 1.552773,-3.09839c0.171735,-1.194991 -0.364937,-2.640429 0,-3.270125c0.357782,-0.644007 0.093023,-1.18068 -0.73703,-1.91771c-0.815742,-0.729875 -0.636852,-2.912344 -0.908766,-3.270125c-0.264758,-0.364937 -0.093023,-2.282648 0.450805,-2.468694c0.543828,-0.16458 1.731664,-1.996422 2.461538,-2.812165c0.729875,-0.815742 2.81932,-3.363149 3.821109,-3.549195c0.994633,-0.178891 2.54025,-1.63864 2.633274,-2.454383c0.093023,-0.822898 2.719141,-3.914132 2.81932,-4.543828c0.093023,-0.644007 1.187835,-3.005367 0.729875,-3.556351c-0.443649,-0.543828 -4,0.822898 -4.450805,1.008945c-0.457961,0.178891 -1.724508,0.908766 -3.191413,0.808587c-1.445438,-0.093023 -0.815742,-1.266547 -0.908766,-1.817531c-0.085868,-0.543828 -1.631485,-2.633274 -1.996422,-2.726297c-0.364937,-0.085868 -1.452594,-1.187835 -1.910555,-2.268336c-0.450805,-1.094812 -1.087657,-2.454383 -1.817531,-3.277281c-0.729875,-0.815742 -1.18068,-2.719141 -1.91771,-4c-0.722719,-1.273703 -1.352415,-2.912344 -1.996422,-4.093023c-0.150268,-0.293381 -0.322004,-0.565295 -0.479428,-0.837209c0.844365,-0.207513 2.067978,-0.586762 2.218247,-0.064401c0.171735,0.629696 1.18068,1.996422 1.359571,2.998211s1.18068,0.636852 1.273703,1.545617c0.100179,0.915921 1.001789,3.09839 1.359571,3.363149c0.372093,0.271914 2.003578,1.731664 2.275492,2.275492c0.271914,0.543828 0.636852,1.273703 0.908766,2.640429c0.271914,1.359571 0.543828,3.177102 1.280859,3.449016c0.729875,0.271914 3.177102,-0.457961 3.635063,-0.729875s3.449016,-1.731664 4.543828,-1.824687c1.094812,-0.085868 1.280859,-0.822898 2.633274,-1.087657c1.366726,-0.271914 2.368515,-1.266547 3.277281,-2.003578c0.908766,-0.722719 2.003578,-2.54025 2.36136,-3.177102c0.372093,-0.629696 1.280859,-1.087657 0.822898,-1.810376c-0.450805,-0.73703 -2.368515,-1.817531 -3.09839,-1.91771c-0.729875,-0.085868 -0.636852,-1.273703 -1.087657,-1.273703s-0.364937,0.629696 -1.273703,1.094812c-0.908766,0.450805 -1.824687,1.359571 -2.461538,1.18068s0.186047,-0.636852 -0.808587,-1.452594s-1.373882,-1.001789 -1.373882,-1.631485c0,-0.636852 -1.989267,-1.824687 -2.175313,-2.733453c-0.186047,-0.908766 1.359571,-2.182469 1.817531,-1.359571c0.450805,0.815742 0.822898,2.089445 1.996422,2.633274c1.18068,0.543828 2.275492,1.45975 2.826476,1.63864c0.543828,0.178891 1.910555,-1.001789 2.36136,-0.815742c0.450805,0.171735 1.366726,1.810376 2.189624,2.089445c0.808587,0.271914 3.542039,0.364937 4,0.364937s2.36136,0.093023 2.726297,-0.450805c0.364937,-0.543828 0.636852,-0.543828 1.094812,-0.543828c0.443649,0 1.266547,1.63864 1.910555,1.817531c0.636852,0.178891 1.817531,0.093023 1.724508,1.280859c-0.085868,1.173524 0.543828,2.182469 1.18068,2.268336c0.644007,0.085868 2.096601,-1.366726 2.096601,-1.366726s0,2.275492 -0.085868,3.09839c-0.100179,0.808587 0.994633,3.821109 0.994633,3.821109s1.359571,2.812165 1.724508,3.449016s1.910555,2.54025 1.910555,3.363149c0,0.822898 0.178891,2.096601 0.73703,2.096601c0.543828,0 1.087657,-1.452594 1.717352,-2.368515c0.651163,-0.90161 0.830054,-2.182469 1.094812,-3.091234c0.271914,-0.908766 0.271914,-2.547406 0.271914,-3.177102c0,-0.644007 0.536673,-1.187835 1.824687,-1.731664c1.273703,-0.543828 2.175313,-2.089445 3.26297,-2.912344c1.094812,-0.822898 1.008945,-2.182469 3.191413,-2.182469c2.182469,0 1.989267,0 2.54025,-0.550984c0.543828,-0.543828 1.080501,-0.908766 1.359571,0.093023c0.271914,1.001789 1.817531,2.454383 2.089445,2.81932c0.271914,0.372093 0.815742,1.366726 0.73703,2.461538c-0.093023,1.087657 0.085868,2.36136 0.536673,2.36136s1.366726,-1.545617 1.366726,-1.545617s1.996422,-1.352415 1.910555,0.093023c-0.100179,1.452594 0.178891,2.998211 0.178891,3.899821c0,0.379249 0.300537,0.966011 0.629696,1.502683c-0.035778,0.422182 -0.028623,0.851521 -0.064401,1.273703c-0.651163,0.171735 -0.658318,1.416816 -0.307692,1.867621zm-50.475849,-38.110913c0.543828,0.357782 0.729875,0.908766 1.087657,1.452594c0.372093,0.543828 1.001789,0.357782 1.452594,0.815742c0.450805,0.457961 -1.273703,1.001789 -0.536673,1.545617c0.722719,0.550984 1.080501,2.726297 1.18068,3.277281c0.093023,0.543828 -1.996422,0.815742 -2.640429,0.729875c-0.636852,-0.093023 -2.533095,-0.729875 -3.184258,-0.908766c-0.636852,-0.186047 -0.994633,-2.454383 -0.178891,-2.368515c0.830054,0.093023 1.008945,-0.178891 1.910555,-0.994633c0.915921,-0.822898 -1.352415,-1.187835 -1.989267,-1.366726c-0.636852,-0.178891 -1.91771,-2.182469 -2.368515,-2.81932c-0.443649,-0.636852 -0.100179,-1.631485 1.008945,-2.368515c0.543828,-0.364937 1.996422,0.450805 2.726297,0c0.722719,-0.450805 1.452594,-1.001789 1.724508,-1.18068c0.27907,-0.178891 2.096601,0.271914 2.36136,0.815742c0.27907,0.543828 1.366726,1.366726 1.008945,1.63864c-0.372093,0.271914 -2.010733,0.543828 -2.547406,0c-0.536673,-0.550984 -1.824687,0.085868 -1.91771,1.087657c-0.100179,1.008945 0.364937,0.27907 0.90161,0.644007zm-25.094812,1.545617c-0.550984,-0.178891 0.178891,-1.273703 0.729875,-1.63864c0.536673,-0.364937 1.173524,-1.273703 1.724508,-2.182469c0.543828,-0.908766 1.273703,-1.001789 1.724508,-0.908766c0.450805,0.093023 1.452594,1.724508 1.724508,2.275492c0.271914,0.543828 1.18068,-0.186047 1.552773,-0.364937c0.357782,-0.178891 0.908766,-0.729875 1.001789,-1.18068s0.908766,-0.729875 1.817531,-0.729875s0.093023,0.729875 -0.543828,0.908766c-0.644007,0.178891 -0.271914,0.550984 0.808587,0.908766c1.094812,0.364937 2.096601,1.366726 3.284436,1.996422c1.18068,0.636852 1.359571,1.910555 0.629696,2.089445c-0.722719,0.178891 -2.905188,0.364937 -3.728086,0.271914c-0.815742,-0.093023 -1.817531,-0.908766 -2.998211,-1.094812c-1.18068,-0.178891 -2.640429,-0.093023 -3.09839,0.550984s-2.089445,0.357782 -2.826476,0.357782c-0.729875,0 -1.631485,0.908766 -1.810376,0.550984c0.007156,0.007156 0.550984,-1.624329 0.007156,-1.810376zm3.091234,-20.193202c0.450805,-1.273703 2.998211,0.271914 2.54025,0.908766c-0.450805,0.644007 -2.847943,-0.042934 -2.54025,-0.908766zm3.542039,65.302326c0.450805,0.729875 -1.001789,3.084079 -1.817531,2.912344c-0.808587,-0.193202 -0.543828,-2.275492 -0.271914,-2.733453c0.271914,-0.457961 1.853309,-0.572451 2.089445,-0.178891zm-33.008944,-42.289804c0.178891,-0.364937 -0.27907,-1.094812 -0.908766,-0.093023c-0.214669,0.350626 0.729875,0.457961 0.908766,0.093023zm54.554561,-33.194991c1.008945,0.543828 2.42576,0.765653 3.09839,0.093023c0.543828,-0.543828 0.093023,-1.45975 -0.357782,-1.545617c-0.457961,-0.093023 -0.744186,-0.822898 0.443649,-1.452594c1.18068,-0.636852 2.454383,-1.45975 3.821109,-1.63864c1.359571,-0.178891 4.450805,-0.271914 5.538461,0c1.087657,0.27907 2.733453,-1.187835 3.184258,-1.817531s-1.452594,-1.087657 -1.996422,-0.364937c-0.550984,0.729875 -3.177102,0.543828 -3.728086,0.364937c-0.543828,-0.178891 -4.908766,0.729875 -5.810376,0.729875c-0.915921,0 -1.280859,1.087657 -2.547406,1.63864c-1.280859,0.543828 -3.005367,1.366726 -3.642218,1.63864c-0.629696,0.271914 -1.266547,1.359571 -0.722719,1.545617c0.543828,0.178891 1.724508,0.264759 2.719141,0.808587zm-47.73524,33.194991c0.457961,-0.636852 -0.364937,-1.552773 -0.815742,-1.552773c-0.858676,0 -1.273703,1.366726 -0.73703,1.817531c0.550984,0.465116 1.094812,0.372093 1.552773,-0.264759zm4.093023,2.454383c0.457961,0.178891 0.815742,0.729875 1.18068,0.815742c0.372093,0.093023 1.552773,0 1.194991,-0.908766s-1.194991,-0.908766 -1.45975,-0.908766c-0.271914,0 -1.452594,-0.271914 -1.910555,0c-0.336315,0.200358 0.536673,0.822898 0.994633,1.001789zm-24.372092,-14.733453c0.722719,0.093023 1.552773,-0.450805 2.182469,-0.722719c0.629696,-0.271914 1.545617,-0.815742 1.545617,-1.63864c0,-0.815742 -0.178891,-1.545617 -0.550984,-1.910555c-0.364937,-0.364937 -1.001789,-0.457961 -1.545617,-0.364937c-0.822898,0.143113 -0.908766,1.001789 -1.452594,1.001789c-0.543828,0 -1.18068,0.178891 -1.001789,0.815742s0.550984,1.087657 0,1.359571c-0.543828,0.27907 0.085868,1.373882 0.822898,1.45975zm4.457961,-3.906977c0.908766,0.364937 2.81932,0.729875 2.089445,1.094812c-0.729875,0.364937 -2.003578,1.359571 -2.182469,1.910555s1.545617,1.094812 1.545617,1.094812s-0.550984,0.636852 -0.093023,0.815742c0.450805,0.178891 0.729875,-0.636852 1.452594,-0.636852c0.722719,0 2.175313,0.450805 2.905188,0.450805c0.73703,0 1.910555,-1.001789 1.817531,-1.63864c-0.093023,-0.636852 -1.001789,-1.63864 -1.817531,-2.003578c-0.808587,-0.364937 -1.724508,-2.003578 -2.268336,-2.368515c-0.543828,-0.364937 0.543828,-1.273703 -0.093023,-1.910555c-0.644007,-0.636852 -1.094812,-0.543828 -1.824687,-1.001789c-0.729875,-0.450805 -1.366726,0.093023 -1.817531,0.636852c-0.450805,0.543828 -1.001789,-0.093023 -1.552773,0.085868c-0.729875,0.250447 -0.450805,1.187835 -0.085868,1.63864c0.372093,0.465116 1.0161,1.466905 1.924866,1.831843zm91.577816,48.55814c-0.593918,0.264759 -1.094812,3.363149 0,3.728086c1.087657,0.372093 1.724508,-1.445438 1.366726,-1.910555c-0.372093,-0.443649 -0.550984,-2.182469 -1.366726,-1.817531zm-33.023255,23.370304c-1.137746,-0.322004 -1.266547,1.187835 -2.175313,2.189624c-0.915921,1.008945 -1.910555,1.817531 -2.268336,1.724508c-0.372093,-0.093023 -2.368515,0.636852 -1.731664,1.996422c0.636852,1.366726 0.543828,2.733453 -0.093023,3.37746c-0.636852,0.629696 0.543828,2.447227 0.372093,3.449016c-0.186047,0.994633 0.264758,1.63864 1.538462,1.63864s1.731664,-0.457961 2.275492,-1.63864c0.543828,-1.187835 0.629696,-2.368515 1.173524,-3.363149c0.550984,-1.008945 1.008945,-3.105546 1.280859,-3.649374c0.271914,-0.536673 0.815742,-2.261181 0.729875,-3.270125c-0.100179,-0.987478 -0.457961,-2.275492 -1.101968,-2.454383zm-69.574238,-83.449017c-0.493739,-0.429338 -1.63864,-0.729875 -2.189624,-0.78712c-0.543828,-0.057245 -1.087657,0.429338 -2.296959,0.429338c-1.202147,0 -1.996422,0.479428 -2.483005,0c-0.486583,-0.486583 -2.497317,-0.729875 -2.683363,-0.429338c-0.243292,0.407871 -0.722719,0.422182 -0.243292,1.273703c0.493739,0.844365 0.858676,1.330948 1.280859,1.273703s1.874776,-0.121646 2.060823,0.364937c0.178891,0.486583 0.67263,0.908766 1.695885,0.608229c1.037567,-0.300537 1.881932,-0.486583 2.118068,-0.851521c0.236136,-0.364937 1.881932,-0.422182 1.881932,-0.422182s1.338104,-1.037567 0.858676,-1.45975z" stroke="#000" fill="#007fff"/>
 </g>
</svg>