<svg width="1543" height="320" xmlns="http://www.w3.org/2000/svg">
 <!-- Created with Method Draw - http://github.com/duopixel/Method-Draw/ -->
 <g>
  <title>background</title>
  <rect fill="none" id="canvas_background" height="322" width="1545" y="-1" x="-1"/>
 </g>
 <g>
  <title>Layer 1</title>
  <path stroke-width="0" stroke="#000" id="svg_1" d="m159.533955,-3.53407c-88.366562,0 -159.999952,71.633423 -159.999952,160.000026c0,88.366603 71.63339,160.000026 159.999952,160.000026c88.366562,0 159.999952,-71.633423 159.999952,-160.000026c0,-88.366603 -71.63339,-160.000026 -159.999952,-160.000026zm-85.306153,66.206148c1.343057,0.605477 2.80721,1.144902 3.082426,1.508188c0.429338,0.561442 0.99078,2.267786 0.286225,2.686116c-0.715563,0.429338 -1.838447,0.286225 -1.992569,-0.99078c-0.143113,-1.265997 -0.286225,-1.40911 -1.98156,-1.981561c-0.242191,-0.077061 -0.385303,-0.110087 -0.561442,-0.16513c0.385303,-0.352277 0.781615,-0.704555 1.166919,-1.056832zm-5.702489,5.438284c0.341269,0.957754 1.243979,1.376084 0,1.871474c-0.66052,0.264208 -1.343057,0.308243 -1.915508,0.231182c0.638503,-0.693546 1.243979,-1.431127 1.915508,-2.102656zm91.008642,215.318598c-70.026124,0 -126.973954,-56.947856 -126.973954,-126.963004c0,-0.935737 0.121095,-1.849457 0.143113,-2.796202c0.044035,-0.033026 0.088069,-0.066052 0.132104,-0.099078c1.420118,-1.122884 3.115452,-3.952113 3.676894,-4.953902c0.572451,-0.979772 1.992569,-1.695335 1.277005,-2.81822c-0.649511,-1.056832 -3.21453,-2.531994 -4.480527,-2.873263c0.110087,-1.089858 0.352277,-2.146691 0.49539,-3.236549c0.693546,0.847668 1.508187,1.871474 2.289803,2.135682c1.265997,0.41833 5.515342,0.572451 6.230905,0.572451c0.693546,0 3.676894,0.154121 4.249345,-0.704555c0.561442,-0.847668 0.99078,-0.847668 1.695335,-0.847668c0.704555,0 1.98156,2.543003 2.983348,2.829228c0.979771,0.286225 2.829227,0.143113 2.686115,1.992569c-0.132104,1.827439 0.847667,3.401679 1.838447,3.533783c0.99078,0.143113 3.258565,-2.135682 3.258565,-2.135682s0,3.544792 -0.132104,4.821798c-0.143113,1.254989 1.552222,5.944682 1.552222,5.944682s2.124673,4.370442 2.686115,5.372231c0.572451,0.99078 2.97234,3.963122 2.97234,5.240127c0,1.288015 0.286225,3.269575 1.144901,3.269575s1.706343,-2.267786 2.686115,-3.687905c1.001789,-1.40911 1.288014,-3.412688 1.706343,-4.821798c0.429338,-1.420119 0.429338,-3.963122 0.429338,-4.953902c0,-1.001789 0.836659,-1.849457 2.829227,-2.697124c1.992569,-0.847668 3.401678,-3.258567 5.097012,-4.535572c1.706343,-1.277006 1.563231,-3.401679 4.975917,-3.401679c3.390669,0 3.104444,0 3.96312,-0.858676c0.847667,-0.847668 1.695335,-1.40911 2.113664,0.143113c0.429338,1.563231 2.829227,3.820009 3.258565,4.39246c0.429338,0.572451 1.277005,2.124674 1.144901,3.831018c-0.143113,1.684327 0.132104,3.676896 0.847667,3.676896c0.704555,0 2.124673,-2.410899 2.124673,-2.410899s3.115452,-2.113665 2.97234,0.154121c-0.154121,2.256778 0.275217,4.678685 0.275217,6.076786c0,1.431127 2.554011,4.821798 2.554011,3.985139c0,-0.869685 1.133893,-3.258567 1.133893,-4.546581c0,-1.254989 0.704555,-0.693546 2.543002,0.561442c1.838447,1.277006 3.115452,3.842026 3.115452,3.842026s1.849456,1.695335 2.124673,2.410899c0.286225,0.704555 2.267785,-0.275217 2.686115,-1.144902c0.429338,-0.836659 0.715563,-1.265997 1.838447,-1.552223c1.144901,-0.286225 2.543002,-0.286225 2.983348,-1.849457c0.429338,-1.563231 1.695335,-3.390671 0,-5.526353c-1.695335,-2.124674 -2.554011,-3.533783 -3.820007,-4.535572c-1.288014,-0.99078 -2.267785,-3.544792 -2.267785,-3.544792s2.686115,-2.39989 3.533782,-3.258567c0.869685,-0.847668 2.124673,-0.275217 2.278794,0.704555c0.143113,1.001789 -1.265997,1.849457 -1.552222,3.97413c-0.286225,2.113665 1.695335,2.829228 2.267785,2.113665c0.561442,-0.715564 1.98156,-2.410899 1.98156,-2.829228c0,-0.429338 -0.979771,-0.286225 -1.122884,-1.838448c-0.143113,-1.563231 1.827439,-2.697124 2.531993,-2.278795c0.726572,0.429338 5.251134,-0.561442 7.375806,-1.695335s3.390669,-3.544792 4.678683,-4.535572c1.277005,-0.979772 5.669463,-4.249347 5.383238,-5.80157c-0.286225,-1.563231 0.132104,-3.676896 -0.99078,-5.669466c-1.133893,-1.981561 -2.554011,-3.247558 -3.115452,-4.106234c-0.561442,-0.847668 2.410898,-0.99078 3.820007,-2.267786c1.420118,-1.277006 0,-2.410899 -0.704555,-2.267786c-0.704555,0.143113 -2.554011,0.572451 -3.258565,0.429338c-0.704555,-0.143113 -1.133893,-0.847668 -2.267785,-1.706344c-1.122884,-0.847668 0.286225,-2.113665 1.001789,-1.970552c0.704555,0.143113 2.531993,-1.420119 3.390669,-2.124674c0.847667,-0.704555 2.124673,-1.265997 1.695335,-0.561442c-0.418329,0.704555 -1.409109,3.258567 -0.286225,3.401679c1.144901,0.143113 3.831016,-2.124674 4.271362,-1.981561c0.418329,0.143113 1.122884,1.981561 0.704555,2.829228c-0.429338,0.847668 -0.429338,2.267786 0.143113,2.124674c0.561442,-0.143113 1.695335,-1.420119 1.98156,-0.99078c0.297234,0.429338 1.695335,1.277006 0.99078,2.829228c-0.693546,1.563231 -2.124673,2.124674 -0.429338,3.126463c1.695335,0.979772 2.267785,0.132104 3.54479,-0.572451c1.265997,-0.704555 2.124673,-3.820009 1.409109,-4.821798c-0.704555,-0.99078 -2.399889,-2.972341 -2.399889,-3.676896c0,-0.704555 2.829227,-0.704555 2.829227,-1.838448s0.99078,-1.981561 1.98156,-2.410899c1.001789,-0.429338 2.267785,-2.267786 2.686115,-1.695335c0.429338,0.572451 2.983348,1.277006 3.676894,0.429338c0.704555,-0.847668 4.403466,-3.963122 6.660243,-5.669466c2.267785,-1.695335 3.115452,-3.676896 3.698912,-5.669466c0.561442,-1.981561 1.409109,-3.258567 1.122884,-4.810789l0,0c0.847667,1.981561 0.99078,3.401679 0.847667,4.953902c-0.143113,1.563231 0,4.821798 0.286225,5.240127c0.275217,0.429338 1.420118,1.40911 2.113664,1.133893c0.704555,-0.275217 -0.275217,-3.115454 -0.275217,-3.676896c0,-0.572451 0.99078,-1.420119 1.563231,-1.563231c0.572451,-0.143113 0,-2.543003 -0.715563,-3.544792c-0.693546,-0.99078 -1.695335,-1.563231 -1.122884,-1.695335c0.561442,-0.143113 1.265997,-1.277006 0.847667,-1.563231c-0.429338,-0.275217 -0.154121,-1.277006 -1.133893,-0.99078c-0.715563,0.209165 -2.653089,-0.16513 -2.587037,1.045824c-0.407321,-1.210954 -1.277005,-2.014587 -2.377872,-1.893491c-1.277005,0.143113 -1.992569,0.847668 -3.258565,0.847668s-0.275217,-1.981561 -0.847667,-1.981561c-0.561442,0 -1.849456,1.838448 -2.543002,0.847668c-0.704555,-0.99078 1.98156,-2.267786 4.106232,-2.972341c2.113664,-0.704555 5.658454,-4.821798 7.089581,-4.964911c1.409109,-0.143113 4.9539,0.286225 8.069352,0.143113c3.115452,-0.143113 4.106232,-1.420119 5.097012,-0.704555s3.115452,1.563231 4.392458,1.420119c1.277005,-0.154121 0.704555,0 2.686115,-1.420119c1.98156,-1.420119 3.831016,-2.124674 4.821796,-3.258567c0.99078,-1.133893 3.687903,-1.981561 3.831016,-0.847668c0.154121,1.133893 -0.286225,2.267786 0.847667,2.267786s2.840236,-1.133893 4.249345,-1.695335c1.420118,-0.561442 2.543002,-1.277006 2.543002,-1.277006s-5.801567,3.963122 -7.210676,4.821798c-1.420118,0.847668 -4.821796,1.420119 -6.241914,3.115454c-1.409109,1.706344 -2.256777,2.267786 -2.113664,4.117243c0.154121,1.838448 2.543002,4.249347 1.409109,5.944682c-1.133893,1.695335 -1.552222,4.106234 -1.552222,4.106234s1.695335,-2.410899 4.106232,-3.963122s3.831016,-3.676896 4.678683,-4.535572s3.401678,-1.001789 3.401678,-1.992569s0.704555,-2.267786 1.144901,-3.401679c0.418329,-1.133893 -0.847667,-0.858676 0,-2.267786c0.836659,-1.420119 0.704555,-2.554012 4.9539,-2.554012s2.829227,0.286225 6.230905,0.143113c3.401678,-0.143113 4.667674,-1.838448 7.92624,-2.697124c3.258565,-0.847668 5.801567,-1.40911 6.803356,-0.979772c0.99078,0.41833 2.554011,0.132104 1.552222,-0.858676c-0.979771,-0.99078 -3.247556,-2.410899 -2.124673,-2.697124c1.144901,-0.286225 2.278794,-0.429338 2.708132,-1.563231c0.429338,-1.133893 -1.563231,-3.115454 -0.429338,-4.249347c1.144901,-1.133893 -0.847667,-2.543003 -2.278794,-2.829228c-1.409109,-0.275217 -6.93546,0.286225 -8.047335,-0.275217c-1.144901,-0.572451 -2.983348,-1.277006 -3.54479,-0.858676c-0.572451,0.429338 -1.849456,2.697124 -1.849456,2.697124s-0.99078,0.275217 -1.849456,-0.99078c-0.836659,-1.277006 -5.504333,-1.133893 -6.924451,-1.133893s-2.983348,0.275217 -4.546579,0.429338c-1.552222,0.143113 -2.410898,0.572451 -3.54479,-0.429338c-1.122884,-0.99078 -2.675106,-1.420119 -3.258565,-1.838448c-0.561442,-0.429338 -3.676894,-0.429338 -6.087792,-0.132104c-2.399889,0.275217 -4.821796,0.275217 -4.821796,0.275217s-1.144901,-0.429338 -2.829227,-1.420119c-1.695335,-0.99078 -3.401678,-1.695335 -3.974128,-1.695335c-0.561442,0 -4.942891,0.704555 -5.933671,0c-1.001789,-0.704555 -1.992569,-1.133893 -2.697123,-1.133893s-1.265997,-1.133893 -0.418329,-1.133893s4.810787,-1.133893 4.810787,-1.133893s-1.133893,-1.563231 -2.543002,-1.563231c-1.409109,0 -3.952111,-0.704555 -4.667674,-0.704555s-0.154121,0.704555 -1.563231,0.429338c-1.431127,-0.286225 -2.840236,-0.858676 -3.687903,-0.286225c-0.836659,0.561442 -2.840236,1.40911 -0.704555,1.981561c2.124673,0.572451 4.106232,0 4.678683,0.858676c0.572451,0.847668 0,1.265997 0,1.838448s-1.133893,2.124674 -1.838447,2.410899c-0.704555,0.275217 -1.574239,-0.429338 -2.97234,0.275217c-1.420118,0.704555 -4.964908,0.143113 -5.394246,0.572451c-0.418329,0.429338 -1.265997,-1.133893 -1.98156,-0.847668c-0.704555,0.275217 -2.554011,2.124674 -3.54479,1.981561c-0.979771,-0.143113 -2.267785,-1.133893 -2.267785,-2.267786s-0.418329,-2.554012 -0.847667,-2.840237c-0.418329,-0.275217 -3.54479,-0.429338 -4.678683,-0.275217c-1.133893,0.143113 -4.667674,0.41833 -5.251134,0.99078c-0.572451,0.572451 -2.124673,0.99078 -3.115452,0.99078s-1.838447,-0.99078 -3.96312,-1.277006c-2.113664,-0.286225 -6.792347,-0.429338 -7.364798,-0.286225s-2.399889,-0.275217 -1.706343,-0.847668c0.715563,-0.561442 2.829227,-2.410899 1.574239,-3.247558c-1.288014,-0.858676 -4.12825,-0.858676 -5.383238,-0.99078c-1.288014,-0.143113 -2.554011,-0.429338 -4.546579,-0.143113c-1.992569,0.286225 -2.410898,1.277006 -3.258565,0.429338c-0.847667,-0.847668 2.124673,0.429338 -0.847667,-0.847668c-2.97234,-1.277006 -4.392458,-1.133893 -5.251134,-0.704555c-0.847667,0.429338 0.143113,0.275217 -2.113664,1.133893c-2.267785,0.858676 -3.54479,1.277006 -4.117241,1.420119c-0.561442,0.132104 -4.095224,-0.715564 -4.524562,-1.001789c-0.418329,-0.275217 -1.992569,0.143113 -3.401678,0.704555s-2.454933,1.40911 -3.864042,1.133893c-1.420118,-0.297234 -3.687903,-0.297234 -5.108021,0.275217c-1.420118,0.561442 -2.410898,0.561442 -3.820007,1.552223c-1.431127,0.99078 -4.106232,1.563231 -4.106232,1.563231s-0.671529,-0.033026 -1.48617,-0.077061c22.303557,-19.375261 51.33341,-31.209583 83.137446,-31.209583c70.026124,0 126.973954,56.947856 126.973954,126.974012s-56.958838,126.963004 -126.973954,126.963004zm-12.241637,-83.809013c0,0 2.278794,-0.286225 2.278794,-1.288015c0,-0.979772 -2.278794,-2.256778 -3.104444,-1.122884c-0.858676,1.122884 -2.410898,2.256778 -2.278794,3.258567c0.209165,1.552223 3.104444,-0.847668 3.104444,-0.847668zm-0.143113,-31.89212c-1.992569,2.56502 -1.838447,2.003578 -3.258565,1.40911c-1.409109,-0.550434 -3.676894,1.277006 -3.258565,2.003578c0.429338,0.704555 3.54479,-0.154121 4.249345,1.122884c0.715563,1.277006 0.715563,1.420119 2.124673,1.144902c1.409109,-0.286225 2.829227,-2.256778 2.410898,-3.247558c-0.418329,-1.023806 -2.267785,-2.432916 -2.267785,-2.432916zm-0.418329,13.452596c-0.561442,0 -4.53557,0.704555 -4.964908,0.869685c-0.429338,0.143113 -2.97234,-0.275217 -2.97234,-0.275217c-0.99078,0.979772 -0.286225,1.970552 1.277005,1.827439s4.821796,-0.572451 5.52635,-0.572451c0.715563,0 1.695335,-1.849457 1.133893,-1.849457zm-6.087792,-39.378016c-2.091647,0.33026 -3.390669,4.821798 -1.706343,4.678685c1.706343,-0.132104 3.54479,-4.953902 1.706343,-4.678685zm4.9539,25.220865c-0.572451,-0.704555 -1.992569,-2.98335 -3.555799,-2.410899c-0.462364,0.187147 -1.684326,2.697124 -0.132104,2.697124c1.563231,0 4.260354,0.41833 3.687903,-0.286225zm1.277005,-1.695335c2.554011,-0.143113 1.838447,-2.697124 -0.143113,-2.829228c-0.561442,-0.044035 -2.410898,2.972341 0.143113,2.829228zm30.174754,23.371409c-2.124673,-0.429338 -2.686115,-1.122884 -4.9539,-2.256778c-2.278794,-1.133893 -7.375806,-1.133893 -7.50791,-0.429338c-0.154121,0.704555 0,0 -1.706343,-0.550434c-1.684326,-0.594468 -2.983348,0 -3.401678,-1.001789c-0.418329,-1.001789 -1.409109,-1.288015 -2.686115,-0.022017c-1.067841,1.067841 -1.563231,1.144902 0.858676,1.57424c2.399889,0.429338 3.115452,0.429338 2.113664,1.552223c-0.99078,1.144902 -1.695335,2.56502 -0.847667,2.686116c0.847667,0.16513 3.401678,-0.550434 3.676894,0c0.286225,0.594468 -0.561442,0.704555 2.278794,1.15591c2.840236,0.407321 3.401678,1.40911 3.952111,1.959543c0.561442,0.572451 2.267785,2.421908 1.144901,2.421908c-1.144901,0 -2.410898,1.40911 -1.563231,1.57424c0.847667,0.143113 3.401678,-0.429338 3.533782,0c0.154121,0.407321 1.574239,3.115454 2.983348,2.98335c1.420118,-0.143113 2.267785,-2.686116 2.97234,-3.412688c0.715563,-0.704555 3.54479,-1.144902 3.842024,0.132104c0.286225,1.277006 1.144901,2.56502 2.829227,3.423697c1.695335,0.836659 3.687903,1.695335 3.831016,0.979772c0.143113,-0.704555 -0.847667,-3.401679 -1.992569,-3.809c-1.133893,-0.451356 -3.104444,-2.851246 -3.104444,-3.831018c0,-1.001789 -1.706343,-1.288015 -2.554011,-2.003578c-0.858676,-0.715564 -1.574239,-2.697124 -3.698912,-3.126463zm-105.121752,-20.971518c-0.924728,0.407321 -1.706343,5.240127 0,5.80157c1.695335,0.572451 2.686115,-2.256778 2.124673,-2.98335c-0.572451,-0.671529 -0.847667,-3.368653 -2.124673,-2.81822zm81.321016,12.043486c-1.299023,-0.550434 -3.687903,4.667677 -1.992569,5.097015c1.706343,0.440347 2.97234,-4.667677 1.992569,-5.097015zm2.840236,-48.592274c0.847667,0 1.98156,-0.561442 1.98156,-2.124674c0,-1.563231 1.98156,0 2.97234,-0.143113s1.552222,-1.133893 1.98156,-2.267786c0.055043,-0.143113 0.088069,-0.231182 0.099078,-0.297234c-0.033026,0.264208 -0.011009,1.023806 1.045823,1.288015c1.695335,0.41833 2.256777,-0.704555 2.256777,-1.133893s3.115452,-1.133893 3.698912,-1.563231c0.561442,-0.41833 2.840236,-1.133893 2.97234,-1.695335c0.143113,-0.561442 0,-3.831018 0.704555,-4.106234c0.704555,-0.286225 1.695335,-0.286225 0.572451,-2.267786c-1.144901,-1.992569 -1.144901,-3.831018 -2.554011,-2.98335c-1.045823,0.627494 -0.418329,3.126463 -1.265997,4.821798s-1.563231,3.258567 -2.124673,3.258567s-3.533782,1.133893 -4.392458,1.981561c-0.836659,0.847668 -4.9539,-0.704555 -5.515342,0c-0.572451,0.704555 -1.695335,1.552223 -2.410898,2.124674c-0.715563,0.561442 -2.697123,0.143113 -2.278794,1.838448c0.396312,1.717353 1.398101,3.269575 2.256777,3.269575zm19.39727,-18.131281c1.98156,-0.143113 3.831016,-0.704555 3.831016,-0.704555s2.983348,0.143113 2.554011,-1.277006c-0.440347,-1.40911 -3.54479,-1.552223 -4.12825,-1.40911c-0.561442,0.143113 -1.563231,-1.563231 -2.686115,-1.277006c-1.056832,0.253199 -1.409109,1.706344 -1.409109,2.124674c0,0.429338 -3.96312,1.265997 -2.697123,2.410899c1.277005,1.122884 2.565019,0.275217 4.53557,0.132104zm-38.959669,77.082715c1.144901,0.704555 3.258565,-2.410899 3.842024,-1.431127c0.561442,1.001789 -0.143113,1.431127 0.836659,2.708133c1.001789,1.254989 2.840236,1.122884 2.840236,1.122884s-0.143113,-3.401679 -1.706343,-4.260356c-1.563231,-0.847668 -2.554011,-1.827439 -0.704555,-1.552223c1.838447,0.286225 2.829227,-0.429338 2.410898,-1.254989c-0.429338,-0.858676 -3.115452,-0.429338 -3.974128,-0.286225s-2.124673,-0.572451 -2.124673,-0.572451c-0.847667,0.264208 -0.693546,0.979772 -0.99078,2.410899c-0.286225,1.398101 -1.563231,2.388882 -0.429338,3.115454zm77.214783,28.182198c-2.543002,-0.572451 -0.847667,0.429338 0,1.695335c0.847667,1.277006 2.554011,1.937526 2.840236,0.550434c0.121095,-0.693546 -0.297234,-1.673318 -2.840236,-2.245769zm10.909588,34.413106c-0.847667,0.704555 0,1.001789 -2.410898,2.421908c-2.421907,1.431127 -5.394246,2.98335 -5.955688,4.249347c-0.572451,1.277006 0.561442,1.992569 2.840236,2.113665c2.267785,0.143113 1.695335,0.58346 3.258565,-1.133893s2.983348,-2.686116 4.821796,-4.106234c1.849456,-1.40911 1.849456,-3.544792 1.849456,-3.544792s-1.992569,-1.959543 -2.124673,-1.552223c-0.242191,0.682538 -1.431127,0.858676 -2.278794,1.552223zm-37.55056,-34.413106c0.154121,-1.277006 -2.410898,-1.277006 -3.676894,-2.278795c-1.277005,-0.979772 -1.409109,-3.952113 -2.124673,-5.669466c-0.704555,-1.684327 -2.113664,-2.829228 -3.54479,-4.370442c-1.409109,-1.57424 -2.113664,-5.119032 -2.531993,-4.821798c-0.429338,0.275217 -1.695335,4.39246 -0.704555,5.669466c0.99078,1.277006 -0.429338,3.831018 -1.133893,5.537362c-0.715563,1.684327 -2.421907,-0.286225 -3.842024,-1.144902c-1.420118,-0.858676 -3.390669,-1.40911 -4.381449,-2.410899c-0.99078,-1.001789 1.706343,-3.687905 1.001789,-4.689694c-0.715563,-0.99078 -4.53557,-0.143113 -4.9539,-0.143113c-0.429338,0 -1.277005,-1.40911 -2.135681,-1.40911c-0.847667,0 -0.704555,2.840237 -0.704555,2.840237s-0.858676,-1.001789 -2.124673,-2.278795c-1.288014,-1.265997 0.132104,0.847668 -1.133893,2.124674c-1.288014,1.288015 -0.869685,0.858676 -1.420118,2.267786c-0.561442,1.420119 -1.838447,0.847668 -3.115452,-0.572451c-1.277005,-1.40911 -1.970551,-0.407321 -2.840236,0c-0.847667,0.429338 -1.552222,2.851246 -1.98156,3.401679c-0.429338,0.572451 -3.401678,1.288015 -4.117241,2.003578c-0.704555,0.682538 -0.99078,2.972341 -0.99078,3.544792c0,0.550434 -2.983348,0.253199 -3.974128,0.979772c-0.99078,0.704555 -2.531993,0.275217 -3.533782,0.275217c-0.99078,0 -4.392458,2.686116 -5.52635,3.390671c-1.133893,0.726572 -1.133893,3.280584 -0.561442,3.985139c0.561442,0.693546 1.695335,2.410899 0.99078,2.686116c-0.704555,0.286225 -1.144901,2.267786 0.561442,3.952113c1.695335,1.706344 1.133893,2.135682 1.265997,2.98335c0.154121,0.847668 0.858676,1.144902 1.992569,2.554012c1.122884,1.40911 -1.992569,2.543003 -2.410898,3.412688c-0.429338,0.836659 1.001789,2.113665 1.838447,2.829228c0.847667,0.693546 2.983348,0.286225 4.249345,-0.143113c1.288014,-0.429338 2.697123,-1.57424 3.533782,-1.706344c0.869685,-0.143113 4.821796,-0.286225 4.821796,-0.286225s1.420118,-2.113665 2.410898,-3.258567c0.979771,-1.122884 4.095224,-0.143113 4.095224,-0.143113s1.288014,-0.836659 4.689692,-1.552223c3.401678,-0.715564 1.970551,0.704555 3.258565,1.144902c1.265997,0.407321 2.97234,0.682538 3.952111,1.40911c0.99078,0.704555 0,2.39989 -0.132104,3.115454c-0.154121,0.704555 2.410898,0.41833 2.531993,-0.286225c0.154121,-0.704555 0.847667,-1.40911 2.278794,-2.256778c1.409109,-0.858676 0.275217,1.254989 0.836659,2.543003c0.572451,1.277006 1.420118,-1.728361 1.420118,-0.286225c0,0.429338 0.429338,0.858676 0.561442,1.277006c0.154121,0.429338 1.992569,0.572451 1.992569,1.981561c0,1.431127 0,2.278795 0.429338,2.543003c0.418329,0.286225 2.686115,0 3.687903,1.706344c0.979771,1.695335 1.695335,0.143113 2.256777,-0.572451c0.572451,-0.704555 2.543002,0.286225 3.115452,0.858676c0.572451,0.550434 2.124673,-1.144902 4.260354,-1.706344c2.113664,-0.561442 1.838447,-0.429338 2.410898,-1.265997c0.561442,-0.858676 0.99078,-3.115454 2.256777,-4.821798c1.265997,-1.684327 2.983348,-4.667677 2.983348,-6.946471c0,-2.267786 -0.154121,-7.507914 -1.706343,-9.896795c-1.552222,-2.410899 -4.513553,-4.832807 -4.381449,-6.098804zm-5.229116,34.699331c-0.715563,-0.143113 -2.278794,-0.682538 -2.278794,-0.682538c-1.563231,1.552223 1.563231,1.552223 1.144901,3.115454c-0.429338,1.552223 2.124673,0.979772 2.829227,0.704555c0.693546,-0.297234 2.421907,-3.555801 2.124673,-4.39246c-0.275217,-0.869685 -3.115452,1.398101 -3.820007,1.254989zm52.555372,-6.517133c-0.572451,0 -0.847667,0.704555 -2.113664,0c-1.288014,-0.693546 -1.001789,-0.407321 -1.849456,-1.838448c-0.847667,-1.398101 -1.001789,-3.258567 -2.410898,-2.531994c-0.561442,0.275217 0,1.849457 0.561442,2.39989c0.583459,0.572451 0.847667,2.543003 0.704555,3.115454c-0.132104,0.572451 -2.543002,1.277006 -1.420118,1.981561c1.144901,0.704555 3.269574,0 2.983348,0.858676c-0.275217,0.847668 -1.420118,1.970552 -0.143113,2.256778c1.265997,0.275217 1.695335,-0.979772 2.278794,-1.959543c0.561442,-1.023806 0.979771,-1.860465 1.970551,-2.432916c0.99078,-0.572451 0,-1.849457 -0.561442,-1.849457zm0.132104,-33.003996c1.849456,0.704555 5.108021,-2.543003 3.820007,-2.972341c-1.265997,-0.429338 -3.820007,2.972341 -3.820007,2.972341zm-97.889058,-14.025047c-0.319251,1.265997 2.124673,1.838448 2.267785,0.429338c0.132104,-1.420119 -1.98156,-1.563231 -2.267785,-0.429338zm3.820007,-37.825794c-0.704555,0.715564 -2.829227,2.124674 -3.115452,3.412688c-0.275217,1.265997 3.401678,-2.003578 4.392458,-3.258567c1.001789,-1.288015 2.97234,-0.572451 3.390669,-1.288015c0.440347,-0.693546 0.440347,-0.693546 0.440347,-0.693546s-1.563231,-0.275217 -2.829227,-0.693546c-1.288014,-0.429338 -2.840236,1.122884 -2.124673,-1.144902c0.704555,-2.267786 2.829227,-1.838448 2.410898,-3.544792c-0.429338,-1.695335 -1.849456,-2.124674 -2.278794,-2.124674c-0.99078,0 0.143113,1.552223 -1.277005,2.543003c-1.409109,0.99078 -2.983348,1.40911 -2.124673,3.115454c0.847667,1.695335 3.820007,2.961333 3.115452,3.676896zm-11.184805,36.11945c0.143113,-0.836659 -1.563231,-2.113665 -2.267785,-2.113665c-0.715563,0 -4.249345,-0.847668 -4.249345,-0.847668c-0.638503,0.253199 -1.48617,0.49539 -1.739369,0.847668c-0.077061,-0.121095 -0.242191,-0.264208 -0.539425,-0.429338c-1.563231,-0.82565 -3.401678,0 -3.974128,-1.122884c-0.550433,-1.144902 -1.398101,-1.144902 -1.970551,-0.429338c-1.034815,1.288015 0.275217,2.267786 0.693546,2.543003c0.418329,0.264208 1.992569,0.572451 3.401678,0.429338c0.880693,-0.088069 1.992569,-0.297234 2.31182,-0.649512c0.044035,0.154121 0.176139,0.297234 0.385303,0.484382c1.133893,1.012798 1.838447,1.431127 3.533782,1.277006c1.717352,-0.110087 4.271362,0.869685 4.414475,0.011009zm-4.106232,-8.355581c0.715563,0 2.124673,0 3.115452,0.286225c0.99078,0.275217 4.249345,0.550434 4.106232,-0.704555c-0.143113,-1.265997 -0.418329,-3.269575 0.979771,-4.524564c1.431127,-1.288015 2.829227,-1.981561 2.124673,-3.831018c-0.693546,-1.838448 -2.124673,-2.98335 -1.133893,-3.842026c0.99078,-0.836659 2.113664,-1.122884 2.113664,-1.827439c0,-0.715564 -2.388881,1.981561 -2.686115,-2.708133c-0.055043,-1.001789 -2.267785,0.275217 -2.410898,1.277006c-0.132104,1.001789 1.563231,1.838448 -1.133893,1.838448c-2.697123,0 -2.829227,2.135682 -3.401678,2.554012c-0.572451,0.429338 -1.133893,0.561442 -2.278794,0.836659c-1.122884,0.286225 -1.398101,1.431127 -1.684326,2.135682c-0.275217,0.693546 -2.267785,-1.277006 -2.829227,-0.704555c-0.561442,0.572451 -0.143113,3.258567 0.847667,5.515344c1.012797,2.278795 3.555799,3.698913 4.271362,3.698913zm-9.929817,-0.704555c0.715563,-0.847668 0.418329,-2.113665 -0.693546,-1.981561c-1.133893,0.143113 -2.124673,-1.849457 -3.96312,-3.115454c-1.849456,-1.254989 -3.258565,-2.135682 -4.964908,-3.963122c-1.695335,-1.838448 -3.820007,-2.98335 -4.9539,-3.952113c-1.144901,-1.001789 -2.829227,-1.431127 -3.54479,-1.277006c-1.750378,0.352277 2.543002,3.401679 2.983348,3.809c0.429338,0.451356 4.260354,3.687905 4.260354,5.262145s2.543002,5.240127 3.258565,5.80157c0.704555,0.572451 4.238336,2.686116 4.810787,3.831018c0.572451,1.133893 1.838447,1.431127 1.838447,-0.143113c-0.011009,-1.563231 0.275217,-3.412688 0.968763,-4.271364zm-10.755467,-16.006608c0.704555,2.554012 2.124673,5.108023 2.686115,6.109812c0.572451,0.979772 2.983348,2.388882 3.831016,3.093437c0.847667,0.704555 2.113664,-0.264208 1.574239,-1.122884c-0.572451,-0.858676 -1.706343,-2.113665 -1.838447,-3.115454c-0.143113,-1.001789 -0.858676,-2.56502 -1.992569,-4.260356c-1.122884,-1.684327 -2.113664,-2.113665 -2.829227,-3.247558c-0.704555,-1.144902 -3.258565,-3.269575 -3.258565,-3.269575c-1.122884,0.143113 -1.122884,2.256778 -0.561442,2.98335c0.539425,0.693546 1.684326,0.286225 2.388881,2.829228z" stroke-opacity="null" fill="#ffffff"/>
  <text font-style="italic" stroke="#000" transform="matrix(1.2782293558120728,0,0,1.2782293558120728,-92.37214612960815,-17.84580477513373) " xml:space="preserve" text-anchor="start" font-family="'Trebuchet MS', Gadget, sans-serif" font-size="147" id="svg_2" y="184.930382" x="328.870616" stroke-opacity="null" stroke-width="0" fill="#ffffff">HanSight Tech</text>
 </g>
</svg>